PathFileType	4	(X/Y/Z)	Patient4_TMGait_0pt8_01_left_34.trc.trc
DataRate	CameraRate	NumFrames	NumMarkers	Units	OrigDataRate	OrigDataStartFrame	OrigNumFrames
89.743589743590	89.743589743590	5	33	mm	89.743589743590	53	       141
Frame#	Time	Sacral			L.Shoulder			Chest			R.Shoulder			Neck			R.ASIS			L.ASIS			R.Thigh.Superior			R.Thigh.Lateral			R.Thigh.Inferior			R.Patella			L.Thigh.Superior			L.Thigh.Lateral			L.Thigh.Inferior			L.Patella			L.Shank.Superior			L.Shank.Lateral			L.Shank.Inferior			R.Shank.Superior			R.Shank.Lateral			R.Shank.Inferior			R.Heel			R.Midfoot.Superior			R.Midfoot.Lateral			R.Toe			L.Heel			L.Midfoot.Lateral			L.Midfoot.Superior			L.Toe			L.Elbow			L.Wrist			R.Elbow			R.Wrist			
		X1	Y1	Z1	X2	Y2	Z2	X3	Y3	Z3	X4	Y4	Z4	X5	Y5	Z5	X6	Y6	Z6	X7	Y7	Z7	X8	Y8	Z8	X9	Y9	Z9	X10	Y10	Z10	X11	Y11	Z11	X12	Y12	Z12	X13	Y13	Z13	X14	Y14	Z14	X15	Y15	Z15	X16	Y16	Z16	X17	Y17	Z17	X18	Y18	Z18	X19	Y19	Z19	X20	Y20	Z20	X21	Y21	Z21	X22	Y22	Z22	X23	Y23	Z23	X24	Y24	Z24	X25	Y25	Z25	X26	Y26	Z26	X27	Y27	Z27	X28	Y28	Z28	X29	Y29	Z29	X30	Y30	Z30	X31	Y31	Z31	X32	Y32	Z32	X33	Y33	Z33	

53	38.079428571429	853.078206920502	1011.726533557758	446.156178535042	1039.671592869290	1440.532127225596	276.459586948368	1140.213371780123	1368.911339547488	438.017564809528	1052.723718958910	1439.207139209367	612.436209307500	1022.807649015808	1498.465583132499	435.092133730280	1077.874159980855	944.681300572526	565.617328729517	1069.572613815644	966.323288323037	292.721635730162	1165.418104367493	782.529027351999	530.304199410608	1133.672515245560	659.649073661408	604.005383076784	1223.926372106913	624.864481839682	523.117573969419	1246.051728943279	509.346044840514	543.720008816508	1115.532727233374	752.393577242729	320.335723092476	1023.503178969529	638.335321031015	261.151550575699	1106.047744194162	558.765853548954	325.197988150335	1104.920357975295	489.450824328216	335.598698696901	1076.654426690169	417.346740355289	327.321270659235	983.968414008258	304.177991673072	280.577154779899	1035.576441725450	193.052949372139	350.879827368035	1166.079263839390	435.596955225098	550.500933744289	1041.043121391682	404.320594109081	609.142070371720	1021.166639255784	296.005175740036	560.820970411539	819.591695056481	254.121318818391	529.402416155324	978.375059394306	173.899844665578	573.137820445089	868.831404061132	186.246397462029	602.781141609335	1025.939515097040	52.264895037744	596.986613593511	907.040245680182	38.100346512417	399.347672682823	975.134573111573	35.661560531854	313.410279277072	1059.510068712501	96.927290351248	335.954617933609	1185.845982921045	46.510295774809	297.275229111824	1035.610233364524	1098.051954937494	130.803504676491	1151.370975279713	862.080265130024	138.241614048760	1040.128563978644	1086.800901493890	718.590049019796	1281.577329950069	1007.559431935678	693.204949088467	
54	38.090571428571	851.864115762016	1011.879844477781	445.053794128142	1039.860462949356	1441.226230052947	276.478066455578	1139.327422027724	1369.178936017988	438.494013430035	1050.773050773885	1438.979551176333	612.567295166560	1022.216292153290	1498.856319882234	435.174195889546	1076.507069228217	945.724702892888	565.229283319449	1068.704633526725	966.788938688223	292.249334480682	1166.676279085784	787.172202669617	529.549489034634	1138.174250517167	663.815947038581	603.988095481273	1228.997537221717	630.941660859409	522.955676213318	1254.186142188990	516.330240813128	543.861130694544	1112.556582017387	751.439286086550	319.835433434276	1018.604929597467	638.441392804375	260.610740604058	1099.778697440991	557.758568063279	324.843121274006	1097.621486844387	488.641939000229	335.441920332376	1069.280425951754	416.914240786664	327.086354697657	976.117385185650	304.130962366471	280.381741194921	1027.147926965796	192.817546544399	350.798186518905	1176.893279191405	440.162365035179	550.903509630220	1053.336327033425	403.684049293592	609.443403103788	1038.014633450936	294.527494318794	561.268896314528	838.196431278114	243.546244260491	529.930373223064	1000.672742587412	171.234205708497	574.145508102534	890.567033590484	178.274536091316	603.523615893067	1053.841650391965	52.051337338332	598.044035685233	898.015169312809	38.092746707067	399.333205526090	966.146165335563	35.660586404878	313.387162346189	1050.588476309704	96.878849806718	335.931754488097	1176.919162843063	46.321256096212	297.228615225735	1045.575564907209	1100.001215436515	128.268719976861	1174.774080248978	871.057894728759	136.653960404397	1029.781378402494	1086.184521079325	716.693838843219	1263.958710221478	982.998309277872	697.330072071487	
55	38.101714285714	850.741922549291	1011.994779347585	444.034268429480	1040.158459755464	1441.892717858967	276.583009940324	1138.564687284460	1369.355003439183	439.008193028140	1049.007450940814	1438.640234372617	612.752637609174	1021.707679257443	1499.170491706375	435.350882608665	1075.230080215904	946.695871788328	564.907881845365	1067.929565317121	967.126455928474	291.831080073150	1167.626399507468	791.397344624616	529.074313386021	1141.951261720796	667.623233807825	604.127142612160	1233.270401883574	636.467229422057	523.019397853187	1261.305749157663	523.010291554385	544.261873818077	1109.551165486509	750.402497718140	319.581823854756	1013.819227575315	638.499367408050	260.162356829499	1093.529367433272	556.726384097274	324.658568617768	1090.334817091536	487.819273582569	335.383188550095	1061.925553460037	416.459337472552	326.935510386092	968.291094024649	304.074492308015	280.232265560596	1018.699590526727	192.565817558922	350.764489910519	1187.067740408483	444.376111022319	551.569970844859	1065.445780207925	402.185819072954	610.091629395770	1055.248285168113	292.323215022639	562.080735607594	857.882042929247	231.417057597605	530.784911593577	1023.979297346751	167.875869016923	575.649284319416	913.484884700039	169.194725692970	604.716790562548	1083.113939299572	51.590636587161	599.825426578284	888.994162220082	38.078094331960	399.323363570740	957.152114770177	35.655962458860	313.372655188057	1041.659570521894	96.832898852091	335.926893047840	1167.978478783533	46.152904476790	297.194569163416	1055.160234907540	1102.231727101934	126.006093256264	1197.643559236448	881.307616989237	135.643343563606	1020.438004742803	1085.646914613322	715.007992565018	1244.737363619912	959.301782399117	701.399041706463	
56	38.112857142857	849.721430348343	1012.060893656884	443.097766881703	1040.582253669591	1442.510543992657	276.778077089024	1137.944960103014	1369.415230464894	439.560227016878	1047.457534540009	1438.169797594562	612.996809468246	1021.301215985856	1499.391638478335	435.623168932165	1074.057111098887	947.562640740698	564.663108102380	1067.257454216466	967.325125943440	291.470603151316	1168.280305654909	795.117434786551	528.839950812695	1144.986945754014	670.968528461930	604.398192666714	1236.715429543739	641.309200259015	523.276670823999	1267.357668979611	529.252687558220	544.883675766884	1106.503761121572	749.282530832069	319.600529328808	1009.164529750151	638.501798093149	259.801399429018	1087.318769371051	555.668412040281	324.628360091359	1083.087420973717	486.986783878634	335.404828593283	1054.606558774245	415.976976223633	326.860127216998	960.503677316222	304.006445908539	280.120790688724	1010.230905190308	192.294281360784	350.779994754857	1196.539837286261	448.178971903629	552.466927013597	1077.400850881485	399.874846525713	611.099634154353	1072.821287320620	289.525613017278	563.251426061561	878.715813122226	218.038065783981	532.038550982510	1048.194510933777	164.027871302188	577.573344838733	937.596802209282	159.297887324627	606.376091617809	1113.543722810084	51.160652233425	602.206936977362	879.983340263625	38.061084846944	399.313915862848	948.155109707739	35.648325932195	313.366030191403	1032.726706037123	96.787600485956	335.940528825854	1159.026586354449	45.999571419051	297.172735397020	1064.312350852779	1104.678413895690	124.011299336336	1219.836771642929	892.783807174597	135.189912584525	1012.062293015245	1085.113604696545	713.574626378558	1223.987129709641	936.801590614606	705.367050525382	
57	38.124000000000	848.815933051806	1012.065758227189	442.246884719215	1041.139024107424	1443.056944897716	277.067970834459	1137.482673219331	1369.338230083334	440.151552741964	1046.148883425825	1437.554180182387	613.305387479866	1021.013051260824	1499.503945197454	435.991838065770	1073.004667357027	948.294676813991	564.503069430577	1066.696375072753	967.379316379830	291.172693619117	1168.649776732599	798.247576442491	528.808998590515	1147.264293957902	673.757812462918	604.781608061275	1239.307002352131	645.345585024123	523.701612297141	1272.298886447183	534.933156424908	545.684452559345	1103.416033178615	748.080260823457	319.884901189883	1004.644340795525	638.443022426533	259.519079081120	1081.161307628384	554.583019356426	324.722195808241	1075.901898701115	486.147529097931	335.482860011735	1047.335531579152	415.463996433168	326.846609160547	952.764465326117	303.926352151468	280.038109867911	1001.741215995482	192.001573311211	350.842685281210	1205.252010493692	451.524154962857	553.554891986105	1089.233810173148	396.819228730847	612.477348844413	1090.672879570724	286.283119344766	564.761174601800	900.733501241717	203.727281210711	533.759356977470	1073.207518904648	159.918373626857	579.827350145860	962.897645812571	148.885707088495	608.498876764012	1144.915727735277	51.060603984621	605.016667920191	870.986683682344	38.047375880033	399.301551019019	939.157867751832	35.638768343400	313.366379541813	1023.793087986269	96.740525129875	335.971162564724	1150.066691145840	45.853653109501	297.162152912025	1073.007456182810	1107.270043314572	122.281066354313	1241.219392584718	905.416847096269	135.265379353836	1004.574363488394	1084.535607614155	712.409266240571	1201.834546673090	915.805072723371	709.195097395005	
